<mxfile host="app.diagrams.net" agent="Mozilla/5.0 (Windows NT 10.0; Win64; x64) AppleWebKit/537.36 (KHTML, like Gecko) Chrome/140.0.0.0 Safari/537.36" version="27.2.0">
  <diagram name="Page-1" id="2YBvvXClWsGukQMizWep">
    <mxGraphModel dx="1894" dy="1120" grid="0" gridSize="10" guides="1" tooltips="1" connect="1" arrows="1" fold="1" page="1" pageScale="1" pageWidth="850" pageHeight="1100" math="0" shadow="0">
      <root>
        <mxCell id="0" />
        <mxCell id="1" parent="0" />
        <mxCell id="56P26fbxcDDPq3GMkX5a-1" value="" style="shape=umlLifeline;perimeter=lifelinePerimeter;whiteSpace=wrap;container=1;dropTarget=0;collapsible=0;recursiveResize=0;outlineConnect=0;portConstraint=eastwest;newEdgeStyle={&quot;edgeStyle&quot;:&quot;elbowEdgeStyle&quot;,&quot;elbow&quot;:&quot;vertical&quot;,&quot;curved&quot;:0,&quot;rounded&quot;:0};participant=umlActor;verticalAlign=bottom;labelPosition=center;verticalLabelPosition=top;align=center;size=65;" vertex="1" parent="1">
          <mxGeometry x="60" y="95" width="35" height="607" as="geometry" />
        </mxCell>
        <mxCell id="56P26fbxcDDPq3GMkX5a-2" value=":PredictionShow&#xa;&lt;&lt;interface&gt;&gt;" style="shape=umlLifeline;perimeter=lifelinePerimeter;whiteSpace=wrap;container=1;dropTarget=0;collapsible=0;recursiveResize=0;outlineConnect=0;portConstraint=eastwest;newEdgeStyle={&quot;edgeStyle&quot;:&quot;elbowEdgeStyle&quot;,&quot;elbow&quot;:&quot;vertical&quot;,&quot;curved&quot;:0,&quot;rounded&quot;:0};size=65;" vertex="1" parent="1">
          <mxGeometry x="308" y="110" width="178" height="592" as="geometry" />
        </mxCell>
        <mxCell id="56P26fbxcDDPq3GMkX5a-3" value=":TrendPredictionService&#xa;&lt;&lt;controler&gt;&gt;" style="shape=umlLifeline;perimeter=lifelinePerimeter;whiteSpace=wrap;container=1;dropTarget=0;collapsible=0;recursiveResize=0;outlineConnect=0;portConstraint=eastwest;newEdgeStyle={&quot;edgeStyle&quot;:&quot;elbowEdgeStyle&quot;,&quot;elbow&quot;:&quot;vertical&quot;,&quot;curved&quot;:0,&quot;rounded&quot;:0};size=65;" vertex="1" parent="1">
          <mxGeometry x="596" y="110" width="228" height="592" as="geometry" />
        </mxCell>
        <mxCell id="56P26fbxcDDPq3GMkX5a-4" value=":Model" style="shape=umlLifeline;perimeter=lifelinePerimeter;whiteSpace=wrap;container=1;dropTarget=0;collapsible=0;recursiveResize=0;outlineConnect=0;portConstraint=eastwest;newEdgeStyle={&quot;edgeStyle&quot;:&quot;elbowEdgeStyle&quot;,&quot;elbow&quot;:&quot;vertical&quot;,&quot;curved&quot;:0,&quot;rounded&quot;:0};size=65;" vertex="1" parent="1">
          <mxGeometry x="910" y="110" width="150" height="592" as="geometry" />
        </mxCell>
        <mxCell id="56P26fbxcDDPq3GMkX5a-5" value=":PredictionRepository" style="shape=umlLifeline;perimeter=lifelinePerimeter;whiteSpace=wrap;container=1;dropTarget=0;collapsible=0;recursiveResize=0;outlineConnect=0;portConstraint=eastwest;newEdgeStyle={&quot;edgeStyle&quot;:&quot;elbowEdgeStyle&quot;,&quot;elbow&quot;:&quot;vertical&quot;,&quot;curved&quot;:0,&quot;rounded&quot;:0};size=65;" vertex="1" parent="1">
          <mxGeometry x="1110" y="110" width="214" height="592" as="geometry" />
        </mxCell>
        <mxCell id="56P26fbxcDDPq3GMkX5a-6" value="inputData" style="verticalAlign=bottom;edgeStyle=elbowEdgeStyle;elbow=vertical;curved=0;rounded=0;endArrow=block;exitX=1.03;exitY=0.045;exitDx=0;exitDy=0;exitPerimeter=0;entryX=-0.011;entryY=0.052;entryDx=0;entryDy=0;entryPerimeter=0;" edge="1" parent="1" source="56P26fbxcDDPq3GMkX5a-14" target="56P26fbxcDDPq3GMkX5a-15">
          <mxGeometry relative="1" as="geometry">
            <Array as="points">
              <mxPoint x="275" y="219" />
            </Array>
          </mxGeometry>
        </mxCell>
        <mxCell id="56P26fbxcDDPq3GMkX5a-7" value="generateFutureTrend(inputData)" style="verticalAlign=bottom;edgeStyle=elbowEdgeStyle;elbow=vertical;curved=0;rounded=0;endArrow=block;exitX=1.078;exitY=0.185;exitDx=0;exitDy=0;exitPerimeter=0;" edge="1" parent="1">
          <mxGeometry relative="1" as="geometry">
            <Array as="points">
              <mxPoint x="555" y="274" />
            </Array>
            <mxPoint x="398.66999999999985" y="275.03499999999997" as="sourcePoint" />
            <mxPoint x="702.5" y="274" as="targetPoint" />
          </mxGeometry>
        </mxCell>
        <mxCell id="56P26fbxcDDPq3GMkX5a-8" value="predict(inputData.features)" style="verticalAlign=bottom;edgeStyle=elbowEdgeStyle;elbow=horizontal;curved=0;rounded=0;endArrow=block;" edge="1" parent="1">
          <mxGeometry relative="1" as="geometry">
            <Array as="points">
              <mxPoint x="848.43" y="326" />
            </Array>
            <mxPoint x="702.5044680851064" y="326" as="sourcePoint" />
            <mxPoint x="976.93" y="326" as="targetPoint" />
          </mxGeometry>
        </mxCell>
        <mxCell id="56P26fbxcDDPq3GMkX5a-9" value="predictionResult" style="verticalAlign=bottom;edgeStyle=elbowEdgeStyle;elbow=vertical;curved=0;rounded=0;dashed=1;dashPattern=2 3;endArrow=block;" edge="1" parent="1">
          <mxGeometry relative="1" as="geometry">
            <Array as="points">
              <mxPoint x="867" y="379" />
            </Array>
            <mxPoint x="992.5" y="379" as="sourcePoint" />
            <mxPoint x="718.0744680851064" y="379" as="targetPoint" />
          </mxGeometry>
        </mxCell>
        <mxCell id="56P26fbxcDDPq3GMkX5a-10" value="save(predictionResult)" style="verticalAlign=bottom;edgeStyle=elbowEdgeStyle;elbow=vertical;curved=0;rounded=0;endArrow=block;" edge="1" parent="1">
          <mxGeometry relative="1" as="geometry">
            <Array as="points">
              <mxPoint x="965" y="436" />
            </Array>
            <mxPoint x="703.0744680851064" y="436" as="sourcePoint" />
            <mxPoint x="1209.4999999999998" y="436" as="targetPoint" />
          </mxGeometry>
        </mxCell>
        <mxCell id="56P26fbxcDDPq3GMkX5a-11" value="Is Success" style="verticalAlign=bottom;edgeStyle=elbowEdgeStyle;elbow=vertical;curved=0;rounded=0;dashed=1;dashPattern=2 3;endArrow=block;" edge="1" parent="1">
          <mxGeometry relative="1" as="geometry">
            <Array as="points">
              <mxPoint x="983" y="490" />
            </Array>
            <mxPoint x="1224.4999999999998" y="490" as="sourcePoint" />
            <mxPoint x="718.0744680851064" y="490" as="targetPoint" />
          </mxGeometry>
        </mxCell>
        <mxCell id="56P26fbxcDDPq3GMkX5a-12" value="Is Success" style="verticalAlign=bottom;edgeStyle=elbowEdgeStyle;elbow=vertical;curved=0;rounded=0;dashed=1;dashPattern=2 3;endArrow=block;" edge="1" parent="1">
          <mxGeometry relative="1" as="geometry">
            <Array as="points">
              <mxPoint x="572.43" y="543" />
            </Array>
            <mxPoint x="716.93" y="543" as="sourcePoint" />
            <mxPoint x="404.50446808510634" y="543" as="targetPoint" />
          </mxGeometry>
        </mxCell>
        <mxCell id="56P26fbxcDDPq3GMkX5a-14" value="" style="rounded=0;whiteSpace=wrap;html=1;" vertex="1" parent="1">
          <mxGeometry x="70" y="200.5" width="15" height="411" as="geometry" />
        </mxCell>
        <mxCell id="56P26fbxcDDPq3GMkX5a-13" value="Is Success" style="verticalAlign=bottom;edgeStyle=elbowEdgeStyle;elbow=vertical;curved=0;rounded=0;dashed=1;dashPattern=2 3;endArrow=block;" edge="1" parent="1" source="56P26fbxcDDPq3GMkX5a-2">
          <mxGeometry relative="1" as="geometry">
            <Array as="points">
              <mxPoint x="278" y="597" />
            </Array>
            <mxPoint x="86" y="597" as="targetPoint" />
          </mxGeometry>
        </mxCell>
        <mxCell id="56P26fbxcDDPq3GMkX5a-15" value="" style="rounded=0;whiteSpace=wrap;html=1;" vertex="1" parent="1">
          <mxGeometry x="389.5" y="198" width="15" height="411" as="geometry" />
        </mxCell>
        <mxCell id="56P26fbxcDDPq3GMkX5a-16" value="" style="rounded=0;whiteSpace=wrap;html=1;" vertex="1" parent="1">
          <mxGeometry x="702.5" y="258" width="15" height="302" as="geometry" />
        </mxCell>
        <mxCell id="56P26fbxcDDPq3GMkX5a-17" value="" style="rounded=0;whiteSpace=wrap;html=1;" vertex="1" parent="1">
          <mxGeometry x="1209.5" y="388" width="15" height="122" as="geometry" />
        </mxCell>
        <mxCell id="56P26fbxcDDPq3GMkX5a-18" value="" style="rounded=0;whiteSpace=wrap;html=1;" vertex="1" parent="1">
          <mxGeometry x="977.5" y="306" width="15" height="87" as="geometry" />
        </mxCell>
        <mxCell id="56P26fbxcDDPq3GMkX5a-19" value="&lt;span style=&quot;color: rgb(0, 0, 0); font-family: Helvetica; font-size: 12px; font-style: normal; font-variant-ligatures: normal; font-variant-caps: normal; font-weight: 400; letter-spacing: normal; orphans: 2; text-align: center; text-indent: 0px; text-transform: none; widows: 2; word-spacing: 0px; -webkit-text-stroke-width: 0px; white-space: normal; background-color: rgb(236, 236, 236); text-decoration-thickness: initial; text-decoration-style: initial; text-decoration-color: initial; display: inline !important; float: none;&quot;&gt;Bjtu研究员&lt;/span&gt;" style="text;whiteSpace=wrap;html=1;" vertex="1" parent="1">
          <mxGeometry x="53.00054904513891" y="153.00321099175346" width="85" height="36" as="geometry" />
        </mxCell>
      </root>
    </mxGraphModel>
  </diagram>
</mxfile>
